<svg xmlns="http://www.w3.org/2000/svg" viewBox="0 0 205.4 109.01"><defs><style>.cls-1{fill:#e9000b;}</style></defs><g id="Capa_2" data-name="Capa 2"><g id="Capa_1-2" data-name="Capa 1"><path class="cls-1" d="M84.76,27.07c0,3.78,0,5.67,0,9.45l.12,38c3.9,0,5.85,0,9.75.06l0-37.8c0-3.76,0-5.64,0-9.4,4.71.1,7.06.11,11.76.07,0,3.75,0,5.63,0,9.38q0,18.88,0,37.76c0,3.75,0,5.63,0,9.38H73.23c0-3.82,0-5.74,0-9.56L73,35.92l0-9.56C77.67,26.71,80,26.86,84.76,27.07Z"/><path class="cls-1" d="M131.26,69.59c4.7-2.29,7.05-3.46,11.76-5.88-.05,6.74-.09,13.53-.13,20.27H109.81l.06-41.58c0-2.24,0-3.36,0-5.6,0-3.76,0-5.63,0-9.39,4.7-.08,7-.16,11.75-.39l-.16,47.51c3.9,0,5.85,0,9.75-.1Z"/><path class="cls-1" d="M136,26.08q16.67-1.41,33.18-4.22l-.07,10.31c-4.25.61-6.38.89-10.65,1.39q-.16,25.21-.34,50.42H146.39q.17-24.58.32-49.17c-4.31.4-6.47.58-10.78.88Z"/><path class="cls-1" d="M69.48,36.5c0-4.17,0-6.25-.06-10.42q-16.66-1.41-33.17-4.22l.06,10.31c0,2.19,0,3.28,0,5.47l.1,15.28.1,15.28c0,2.19,0,3.28,0,5.47,0,4.13,0,6.19.07,10.31H69.73c0-6.39,0-9.59-.09-16-4.69-.11-7-.18-11.72-.32,0,2.6,0,3.9,0,6.5L48.22,74l-.14-20.15c0-8-.08-12.08-.14-20.14,3.91.45,5.86.66,9.77,1,0,2.6,0,3.9,0,6.5C62.43,39.33,64.78,38.4,69.48,36.5Z"/><path class="cls-1" d="M32.75,21.25A380.27,380.27,0,0,1,0,0V84H33.15Q33,58.27,32.83,32.54c0-4.51,0-6.77-.08-11.29ZM21.39,73.19c-3.89-.13-5.83-.21-9.72-.36q-.08-26.26-.16-52.54c3.85,2.43,5.78,3.6,9.65,5.84Q21.28,49.67,21.39,73.19Z"/><path class="cls-1" d="M172.65,21.25c0,4.52-.05,6.78-.07,11.29L172.25,84H205.4V0a380.27,380.27,0,0,1-32.75,21.25Zm11.59,4.88c3.87-2.24,5.8-3.41,9.65-5.84q-.07,26.26-.16,52.54c-3.89.15-5.83.23-9.72.36Q184.13,49.66,184.24,26.13Z"/><polygon class="cls-1" points="38.34 99.77 34.97 95.43 32.16 95.43 37.19 101.84 37.19 108.86 39.54 108.86 39.54 101.84 44.57 95.43 41.75 95.43 38.34 99.77"/><polygon class="cls-1" points="56.14 104.21 52.38 95.43 50.02 95.43 55.75 108.78 55.81 108.91 56.52 108.91 62.2 95.43 59.87 95.43 56.14 104.21"/><polygon class="cls-1" points="67.27 103.15 72.59 103.15 72.59 101.04 67.27 101.04 67.27 97.52 72.78 97.52 72.78 95.43 64.97 95.43 64.97 108.84 72.96 108.84 72.96 106.74 67.27 106.74 67.27 103.15"/><path class="cls-1" d="M85.1,105.93a23.76,23.76,0,0,0-1.69-2.49,6.36,6.36,0,0,0-1-.93,3.4,3.4,0,0,0,1.37-1.16,3.64,3.64,0,0,0,.61-2.08,3.49,3.49,0,0,0-1.24-2.81,4.89,4.89,0,0,0-3.27-1H76.46v13.43h2.3V103.2H79a2.5,2.5,0,0,1,1.19.19A3.93,3.93,0,0,1,81,104a10.38,10.38,0,0,1,1,1.23l1.21,2,.36.51.11.15.63,1h2.77l-.95-1.28C85.91,107.21,85.56,106.67,85.1,105.93Zm-3-6.68a1.92,1.92,0,0,1-.26,1,1.62,1.62,0,0,1-.72.65,5.3,5.3,0,0,1-1.85.22h-.48V97.45h.33a6.41,6.41,0,0,1,1.89.19,1.47,1.47,0,0,1,.8.62A1.77,1.77,0,0,1,82.07,99.25Z"/><path class="cls-1" d="M98.72,96.25a9.43,9.43,0,0,0-4.3-.82h-4.6v13.41h4.33a17.54,17.54,0,0,0,2.38-.1,6.78,6.78,0,0,0,1.39-.4,6.62,6.62,0,0,0,4.28-6.19,6.8,6.8,0,0,0-.94-3.48A6.22,6.22,0,0,0,98.72,96.25Zm1.12,5.8a4.61,4.61,0,0,1-1.32,3.36,4.25,4.25,0,0,1-.89.69,5,5,0,0,1-1.24.46,9.46,9.46,0,0,1-2.11.18H92.12V97.52h2.11a13.69,13.69,0,0,1,1.9.1,4.83,4.83,0,0,1,1.22.4,4.3,4.3,0,0,1,2.49,4Z"/><path class="cls-1" d="M109.16,95.35l-5.77,13.51h2.39l1.63-3.85h5.25l1.73,3.85h2.39l-6-13.51Zm2.54,7.56h-3.37L110,99Z"/><path class="cls-1" d="M128.45,96.25a9.39,9.39,0,0,0-4.29-.82h-4.6v13.41h4.33a17.64,17.64,0,0,0,2.38-.1,6.78,6.78,0,0,0,1.39-.4,6.61,6.61,0,0,0,3.76-3.62,6.63,6.63,0,0,0,.52-2.57,6.8,6.8,0,0,0-.94-3.48A6.18,6.18,0,0,0,128.45,96.25Zm1.12,5.8a4.6,4.6,0,0,1-1.31,3.36,4.31,4.31,0,0,1-.9.69,4.81,4.81,0,0,1-1.23.46,9.46,9.46,0,0,1-2.11.18h-2.16V97.52H124a13.75,13.75,0,0,1,1.91.1,5.1,5.1,0,0,1,1.22.4,4.31,4.31,0,0,1,1.14.77A4.24,4.24,0,0,1,129.57,102.05Z"/><polygon class="cls-1" points="138.03 103.15 143.34 103.15 143.34 101.04 138.03 101.04 138.03 97.52 143.53 97.52 143.53 95.43 135.73 95.43 135.73 108.84 143.71 108.84 143.71 106.74 138.03 106.74 138.03 103.15"/><path class="cls-1" d="M155.85,105.93a23.76,23.76,0,0,0-1.69-2.49,6.36,6.36,0,0,0-.95-.93,3.4,3.4,0,0,0,1.37-1.16,3.62,3.62,0,0,0,.61-2.08A3.49,3.49,0,0,0,154,96.46a4.89,4.89,0,0,0-3.27-1h-3.47v13.43h2.3V103.2h.26a2.47,2.47,0,0,1,1.19.19,3.69,3.69,0,0,1,.82.64,10.38,10.38,0,0,1,1,1.23l1.21,2,.36.51.11.15.63,1h2.77l-.95-1.28C156.66,107.21,156.31,106.67,155.85,105.93Zm-3-6.68a1.81,1.81,0,0,1-.26,1,1.62,1.62,0,0,1-.72.65,5.3,5.3,0,0,1-1.85.22h-.48V97.45h.33a6.41,6.41,0,0,1,1.89.19,1.47,1.47,0,0,1,.8.62A1.77,1.77,0,0,1,152.82,99.25Z"/><path class="cls-1" d="M171.17,97.21a7.21,7.21,0,0,0-5.16-2,7.11,7.11,0,0,0-5.14,2,6.66,6.66,0,0,0-2,5,6.52,6.52,0,0,0,2,4.88,7,7,0,0,0,5,2,7.43,7.43,0,0,0,5.25-2,6.43,6.43,0,0,0,2.09-4.91A6.58,6.58,0,0,0,171.17,97.21Zm-.29,4.9a4.55,4.55,0,0,1-1.38,3.38,5.14,5.14,0,0,1-6.93,0,4.46,4.46,0,0,1-1.37-3.34,4.51,4.51,0,0,1,1.37-3.4,4.86,4.86,0,0,1,3.51-1.33,4.71,4.71,0,0,1,3.42,1.35A4.43,4.43,0,0,1,170.88,102.11Z"/></g></g></svg>